<?xml version="1.0" encoding="UTF-8" standalone="no" ?>
<!DOCTYPE svg PUBLIC "-//W3C//DTD SVG 1.1//EN" "http://www.w3.org/Graphics/SVG/1.1/DTD/svg11.dtd">
<svg xmlns="http://www.w3.org/2000/svg" xmlns:xlink="http://www.w3.org/1999/xlink" version="1.1" width="1080" height="1080" viewBox="0 0 1080 1080" xml:space="preserve">
<desc>Created with Fabric.js 5.2.4</desc>
<defs>
</defs>
<g transform="matrix(1 0 0 1 540 540)" id="cd3c2302-34e0-485b-839e-073260df39d1"  >
</g>
<g transform="matrix(1 0 0 1 540 540)" id="5deb1426-b62f-4148-a04c-9604504548b9"  >
<rect style="stroke: none; stroke-width: 1; stroke-dasharray: none; stroke-linecap: butt; stroke-dashoffset: 0; stroke-linejoin: miter; stroke-miterlimit: 4; fill: rgb(255,255,255); fill-rule: nonzero; opacity: 1; visibility: hidden;" vector-effect="non-scaling-stroke"  x="-540" y="-540" rx="0" ry="0" width="1080" height="1080" />
</g>
<g transform="matrix(4.76 0 0 4.76 540.27 540.08)"  >
<linearGradient id="SVGID_5" gradientUnits="userSpaceOnUse" gradientTransform="matrix(1 0 0 1 0 0)"  x1="851.318" y1="47.553" x2="756.751" y2="339.402">
<stop offset="0%" style="stop-color:rgb(223,137,8);stop-opacity: 1"/>
<stop offset="100%" style="stop-color:rgb(180,21,255);stop-opacity: 1"/>
</linearGradient>
<path style="stroke: none; stroke-width: 1; stroke-dasharray: none; stroke-linecap: butt; stroke-dashoffset: 0; stroke-linejoin: miter; stroke-miterlimit: 4; fill: url(#SVGID_5); fill-rule: nonzero; opacity: 1;"  transform=" translate(-113.24, -35.79)" d="M 0 61.1395 C 0 55.1999 5.16729 50.5816 11.0696 51.2459 L 187.039 71.052 C 209.597 73.591 228.703 54.5844 226.282 32.0133 C 223.76 8.50255 199.379 -6.00841 177.511 2.98631 L 13.7433 70.3471 C 7.19098 73.0422 0 68.2245 0 61.1395 Z" stroke-linecap="round" />
</g>
<g transform="matrix(2.05 0 0 2.05 444.33 481.55)" style="" id="5408520b-d39b-4364-92ff-3e35cd134142"  >
		<text xml:space="preserve" font-family="Raleway" font-size="200" font-style="normal" font-weight="900" style="stroke: none; stroke-width: 1; stroke-dasharray: none; stroke-linecap: butt; stroke-dashoffset: 0; stroke-linejoin: miter; stroke-miterlimit: 4; fill: rgb(255,255,255); fill-rule: nonzero; opacity: 1; white-space: pre;" ><tspan x="-298.1" y="62.83" >K</tspan><tspan x="-162.3" y="62.83" >e</tspan><tspan x="-36.9" y="62.83" >N</tspan><tspan x="118.9" y="62.83" >i</tspan><tspan x="181.1" y="62.83" >L</tspan></text>
</g>
</svg>